# xmcd
#
# Track frame offsets: 
#        150
#        16113
#        28758
#        41408
#        53950
#        65409
#        83477
#        94507
#        110584
#        122921
#        137324
#        153107
#
# Disc length: 2206 seconds
#
# Revision: 2
# Processed by: cddbd v1.5.2PL0 Copyright (c) Steve Scherf et al.
# Submitted via: ExactAudioCopy v1.0b3
#
DISCID=89089c0c
DTITLE=Various Artist - Country Classics - D2
DYEAR=2008
DGENRE=Country
TTITLE0=Pam Tillis - Mi Vida Loca
TTITLE1=Exile - Give Me One More Chance
TTITLE2=Holly Dunn - You Really Had Me Going
TTITLE3=Freddy Fender - Wasted Days Wasted Nights {LIVE}
TTITLE4=Mickey Gilley - That's All That Matters
TTITLE5=Janie Fricke - Tell Me A Lie
TTITLE6=Merle Haggard - Mamma Tried
TTITLE7=Juice Newton - Hurt
TTITLE8=Johnny Paycheck - Take This Job And Shove It
TTITLE9=T.G. Shepppard - Do You Wanna Go To Heaven
TTITLE10=Tanya Tucker - Here's Some LOVE
TTITLE11=Faron Young - Four In The Morning
EXTD=
EXTT0=
EXTT1=
EXTT2=
EXTT3=
EXTT4=
EXTT5=
EXTT6=
EXTT7=
EXTT8=
EXTT9=
EXTT10=
EXTT11=
PLAYORDER=
